<svg width="163" height="173" viewBox="0 0 163 173" fill="none" xmlns="http://www.w3.org/2000/svg">
<path d="M20.5919 171.635C21.022 171.635 21.4344 171.464 21.7385 171.161C22.0426 170.857 22.2134 170.446 22.2134 170.017C22.2134 169.588 22.0426 169.176 21.7385 168.873C21.4344 168.569 21.022 168.399 20.5919 168.399C20.1619 168.399 19.7494 168.569 19.4453 168.873C19.1412 169.176 18.9704 169.588 18.9704 170.017C18.9704 170.446 19.1412 170.857 19.4453 171.161C19.7494 171.464 20.1619 171.635 20.5919 171.635Z" fill="#151718"/>
<path d="M66.6692 7.07835C67.9664 18.7787 68.9696 30.4878 69.6787 42.2054C69.7954 44.2634 73.0385 44.2893 72.9217 42.2054C72.2212 30.4878 71.2181 18.7787 69.9122 7.07835C69.6917 5.03336 66.4486 5.00748 66.6692 7.07835Z" fill="#151718"/>
<path d="M73.0385 43.9139C74.1698 42.5438 75.3873 41.2468 76.6837 40.031C76.9855 39.7258 77.1547 39.3143 77.1547 38.8856C77.1547 38.4568 76.9855 38.0453 76.6837 37.7401C76.3746 37.445 75.9634 37.2803 75.5356 37.2803C75.1079 37.2803 74.6966 37.445 74.3876 37.7401C73.0954 38.9561 71.8822 40.253 70.7554 41.623C70.4503 41.9225 70.2658 42.323 70.2365 42.749C70.2433 43.1763 70.4153 43.5843 70.7165 43.888C71.0193 44.1909 71.4293 44.3628 71.858 44.3669C72.0706 44.3663 72.2809 44.3237 72.4768 44.2415C72.6728 44.1593 72.8504 44.0391 72.9996 43.888L73.0385 43.9139Z" fill="#151718"/>
<path d="M75.3216 40.1605C75.8924 40.2899 76.4632 40.4452 77.021 40.6264L77.7474 40.8853L78.1625 41.0406H78.0717L78.2793 41.1312C79.3161 41.5721 80.3068 42.114 81.2369 42.749C81.612 42.9593 82.0542 43.016 82.4704 42.9074C82.8866 42.7987 83.2443 42.5332 83.4681 42.1666C83.6717 41.7929 83.7246 41.3558 83.6161 40.9445C83.5076 40.5332 83.2459 40.1787 82.8844 39.9534C80.8664 38.5369 78.5869 37.5338 76.1778 37.0024C75.7635 36.8985 75.325 36.9592 74.9547 37.1716C74.5844 37.3841 74.3113 37.7318 74.193 38.1414C74.1337 38.3479 74.1159 38.564 74.1405 38.7774C74.1652 38.9909 74.2319 39.1973 74.3368 39.3849C74.4416 39.5725 74.5826 39.7376 74.7516 39.8707C74.9206 40.0038 75.1143 40.1023 75.3216 40.1605Z" fill="#151718"/>
<path d="M83.7016 42.1537C84.1565 41.3812 84.6591 40.6377 85.2064 39.9275L84.9599 40.2511C85.4651 39.6 86.0064 38.9778 86.5815 38.3873C86.7455 38.2401 86.8777 38.0612 86.97 37.8613C87.0623 37.6614 87.1128 37.4448 87.1183 37.2248C87.1238 37.0048 87.0843 36.786 87.0022 36.5818C86.9201 36.3775 86.797 36.1922 86.6406 36.037C86.4842 35.8818 86.2977 35.7601 86.0926 35.6793C85.8874 35.5985 85.6679 35.5603 85.4474 35.5671C85.2269 35.5739 85.0102 35.6255 84.8104 35.7187C84.6106 35.8119 84.4319 35.9448 84.2854 36.1093C82.9778 37.4348 81.8405 38.9173 80.8996 40.5229C80.6856 40.8963 80.6268 41.3387 80.736 41.7549C80.8451 42.1711 81.1135 42.528 81.4834 42.749C81.8572 42.9553 82.2964 43.0099 82.7095 42.9014C83.1227 42.7929 83.478 42.5298 83.7016 42.1666V42.1537Z" fill="#151718"/>
<path d="M85.6215 38.5685C85.9799 38.5427 86.3398 38.5427 86.6982 38.5685H86.2701C86.8321 38.6494 87.3813 38.8017 87.9046 39.0215L87.5155 38.8532C88.0103 39.0743 88.48 39.3477 88.9165 39.6686L88.5792 39.4098C88.8448 39.617 89.0962 39.8419 89.3316 40.0828C89.6352 40.3831 90.0455 40.5517 90.4731 40.5517C90.9007 40.5517 91.311 40.3831 91.6147 40.0828C91.9126 39.7782 92.0794 39.3694 92.0794 38.9438C92.0794 38.5182 91.9126 38.1095 91.6147 37.8048C90.8424 37.0003 89.9107 36.365 88.8789 35.9394C87.8471 35.5138 86.7377 35.3072 85.6215 35.3327C85.1915 35.3327 84.779 35.5032 84.4749 35.8066C84.1708 36.11 84 36.5215 84 36.9506C84 37.3797 84.1708 37.7912 84.4749 38.0946C84.779 38.398 85.1915 38.5685 85.6215 38.5685Z" fill="#151718"/>
<path d="M92.2892 39.7463C93.4424 38.9245 94.4101 37.8707 95.1301 36.6529C95.2393 36.4698 95.3107 36.2669 95.3404 36.0559C95.3701 35.845 95.3575 35.6303 95.3031 35.4243C95.2488 35.2182 95.1539 35.0251 95.024 34.8561C94.894 34.687 94.7317 34.5455 94.5464 34.4397C94.3531 34.3247 94.1377 34.2515 93.9143 34.2247C93.6908 34.1979 93.4642 34.2183 93.2492 34.2844C92.8548 34.3934 92.5136 34.6418 92.2892 34.9833C92.1068 35.2875 91.9076 35.5813 91.6925 35.8634L91.952 35.5269C91.5 36.1073 90.9771 36.6291 90.3953 37.08L90.7196 36.8341L90.6158 36.9118C90.4334 37.0115 90.2777 37.1536 90.1618 37.326C90.0244 37.4817 89.9265 37.6682 89.8764 37.8696C89.8155 38.0849 89.7979 38.3101 89.8246 38.5322C89.8513 38.7544 89.9218 38.969 90.0321 39.1639C90.2525 39.5225 90.5996 39.7857 91.005 39.9016L91.4331 39.9663C91.7203 39.9671 92.0025 39.8911 92.2503 39.7463H92.2892Z" fill="#151718"/>
<path d="M94.3259 37.4166H93.8978C94.6838 37.518 95.4521 37.7271 96.1809 38.0378L95.7917 37.8696C96.1346 38.0126 96.4682 38.1769 96.7906 38.3614C96.9838 38.4763 97.1986 38.5506 97.4217 38.5795C97.6448 38.6084 97.8715 38.5915 98.0878 38.5297C98.4913 38.4167 98.8353 38.1523 99.0478 37.7919C99.2596 37.4192 99.3185 36.9791 99.2121 36.564C99.1056 36.1489 98.8422 35.7911 98.477 35.5657C97.093 34.7905 95.5575 34.3225 93.9756 34.1938C93.7588 34.1869 93.5428 34.2231 93.3402 34.3004C93.1375 34.3776 92.9523 34.4943 92.7954 34.6437C92.6384 34.7931 92.5128 34.9721 92.4259 35.1704C92.339 35.3687 92.2926 35.5823 92.2892 35.7987C92.2881 36.0129 92.33 36.2253 92.4125 36.4231C92.4949 36.6209 92.6162 36.8003 92.7692 36.9506C93.083 37.235 93.4872 37.4 93.9108 37.4166H94.3259Z" fill="#151718"/>
<path d="M99.4239 36.6788C96.8295 25.2373 96.9592 13.4722 97.0889 1.81058C97.0889 1.38149 96.9181 0.969983 96.614 0.666574C96.3099 0.363165 95.8975 0.192712 95.4674 0.192712C95.0374 0.192712 94.6249 0.363165 94.3208 0.666574C94.0167 0.969983 93.8459 1.38149 93.8459 1.81058C93.7032 13.7698 93.6513 25.8197 96.2976 37.546C96.7646 39.578 99.8909 38.7108 99.4239 36.6788Z" fill="#151718"/>
<path d="M93.9367 0.826916L90.045 6.27589C89.9313 6.46935 89.8587 6.68414 89.832 6.90684C89.8052 7.12954 89.8247 7.35536 89.8894 7.57018C90.0025 7.97278 90.2675 8.31602 90.6288 8.52795C91.0004 8.73864 91.4394 8.79702 91.8533 8.69076C92.2672 8.5845 92.6236 8.32192 92.847 7.95847L96.7387 2.49655C96.8525 2.30317 96.9261 2.0889 96.955 1.86653C96.984 1.64416 96.9678 1.41824 96.9073 1.20226C96.7938 0.803577 96.5346 0.461838 96.1809 0.244484C95.8064 0.0414136 95.3683 -0.0113912 94.956 0.0968468C94.5438 0.205085 94.1885 0.466206 93.9626 0.826916H93.9367Z" fill="#151718"/>
<path d="M91.939 5.86171L85.868 2.26358C85.4949 2.05403 85.0547 1.99764 84.6406 2.10636C84.2265 2.21508 83.8711 2.48036 83.6497 2.84601C83.4397 3.21828 83.3832 3.65751 83.4922 4.07064C83.6012 4.48377 83.867 4.83835 84.2335 5.05925L90.3045 8.65738C90.4885 8.76446 90.6918 8.83434 90.9028 8.86302C91.1139 8.8917 91.3285 8.87863 91.5345 8.82454C91.7405 8.77046 91.9338 8.67643 92.1033 8.54781C92.2729 8.4192 92.4154 8.25852 92.5227 8.07495C92.6301 7.89139 92.7001 7.68853 92.7288 7.47795C92.7576 7.26738 92.7445 7.05323 92.6903 6.84771C92.6361 6.64219 92.5418 6.44934 92.4129 6.28016C92.284 6.11098 92.123 5.96879 91.939 5.86171Z" fill="#151718"/>
<path d="M83.2087 2.7813C82.7701 3.30632 82.3793 3.86942 82.0412 4.46388C81.709 5.05905 81.4312 5.68283 81.211 6.32766C81.149 6.54345 81.132 6.76962 81.161 6.99222C81.19 7.21482 81.2644 7.42913 81.3796 7.62195C81.592 7.98239 81.9361 8.24679 82.3396 8.3597C82.5558 8.42151 82.7825 8.43847 83.0056 8.40954C83.2287 8.3806 83.4435 8.30637 83.6368 8.19144C83.9889 7.96929 84.2508 7.63001 84.3762 7.23366C84.4426 7.02672 84.5206 6.82363 84.6097 6.62535L84.441 7.01363C84.7519 6.28903 85.1528 5.60632 85.6345 4.98159L85.375 5.21457L85.5177 5.02042C85.6763 4.88258 85.7931 4.70326 85.855 4.50271C85.9533 4.32453 86.0025 4.12358 85.9977 3.92027C85.9916 3.48912 85.8198 3.07678 85.5177 2.76835C85.2136 2.46907 84.8034 2.30163 84.3762 2.30241C84.164 2.29761 83.9532 2.33652 83.7568 2.41669C83.5603 2.49686 83.3826 2.61657 83.2346 2.76835L83.2087 2.7813Z" fill="#151718"/>
<path d="M83.5589 5.65463L79.9008 2.4189C79.5935 2.12276 79.1863 1.95195 78.7592 1.94001C78.3271 1.94614 77.9138 2.11756 77.6047 2.4189C77.306 2.72569 77.1388 3.13659 77.1388 3.56434C77.1388 3.9921 77.306 4.403 77.6047 4.70979L81.2629 7.94552C81.5768 8.23778 81.9881 8.40376 82.4174 8.41147C82.844 8.40949 83.2532 8.24246 83.5589 7.94552C83.8632 7.63861 84.0355 7.22531 84.0389 6.7936C84.0348 6.36583 83.8625 5.95678 83.5589 5.65463Z" fill="#151718"/>
<path d="M77.3842 2.35418C75.5255 3.31981 73.8171 4.54923 72.3121 6.00408C72.0368 6.31308 71.8904 6.71552 71.9032 7.12876C71.916 7.54201 72.0868 7.9347 72.3806 8.22622C72.6745 8.51774 73.069 8.68596 73.4832 8.69634C73.8975 8.70672 74.3 8.55847 74.6081 8.28204C75.1515 7.76344 75.7231 7.27517 76.3205 6.81949L75.9832 7.0654C76.9397 6.36233 77.9553 5.74308 79.0187 5.21457C79.3877 4.99599 79.6558 4.64136 79.765 4.22727C79.8742 3.81317 79.8158 3.37283 79.6024 3.00133C79.3788 2.63817 79.0234 2.375 78.6103 2.26653C78.1972 2.15805 77.758 2.21262 77.3842 2.4189V2.35418Z" fill="#151718"/>
<path d="M74.5303 6.18529C73.0696 4.4957 71.3748 3.02263 69.4971 1.81058C69.1247 1.59766 68.6834 1.5394 68.2684 1.64837C67.8533 1.75734 67.4979 2.02481 67.2788 2.39301C67.0688 2.76528 67.0123 3.20451 67.1213 3.61764C67.2302 4.03077 67.4961 4.38535 67.8626 4.60625C68.3728 4.94277 68.8658 5.29222 69.3414 5.65463L69.0171 5.40871C70.1913 6.31934 71.2692 7.34716 72.2342 8.47618C72.4626 8.69867 72.7514 8.84956 73.0647 8.91021C73.3781 8.97087 73.7024 8.93865 73.9976 8.81752C74.2929 8.69639 74.5461 8.49166 74.726 8.2286C74.906 7.96553 75.0048 7.65565 75.0103 7.33721C74.992 6.90865 74.8219 6.50047 74.5303 6.18529Z" fill="#151718"/>
<path d="M67.0583 3.2343C66.9631 5.11548 66.9978 7.00098 67.1621 8.87741C67.1757 9.30454 67.3412 9.71289 67.6291 10.0293C67.9395 10.3271 68.353 10.494 68.7836 10.4953C69.2126 10.4919 69.6231 10.3204 69.9265 10.0177C70.2298 9.715 70.4017 9.30545 70.4051 8.87741C70.2408 7.00098 70.2061 5.11548 70.3014 3.2343C70.298 2.80626 70.126 2.39671 69.8227 2.09404C69.5193 1.79136 69.1088 1.61982 68.6798 1.61643C68.2529 1.62631 67.8462 1.79993 67.5442 2.10122C67.2422 2.40252 67.0682 2.80832 67.0583 3.2343Z" fill="#151718"/>
<path d="M69.6138 24.8749C49.8727 31.5939 29.0771 34.6983 8.22941 34.0385C6.14089 33.9737 6.14089 37.2095 8.22941 37.2742C29.3753 37.9415 50.4685 34.7978 70.4959 27.9941C72.4548 27.3211 71.6115 24.2018 69.6268 24.8749H69.6138Z" fill="#151718"/>
<path d="M6.49114 36.0705C9.96768 53.3881 11.0963 71.0164 12.4583 88.6317C13.8204 106.247 15.1306 123.811 15.8311 141.439C16.2073 150.952 16.2981 160.568 18.9185 169.797C18.9756 170.002 19.0725 170.193 19.2038 170.361C19.3351 170.528 19.4981 170.668 19.6836 170.773C19.8691 170.877 20.0735 170.944 20.2849 170.97C20.4964 170.996 20.7109 170.98 20.9162 170.923C21.1215 170.866 21.3135 170.769 21.4813 170.638C21.6491 170.507 21.7894 170.345 21.8942 170.159C21.999 169.974 22.0663 169.77 22.0921 169.559C22.1179 169.348 22.1019 169.134 22.0448 168.93C19.7098 160.711 19.4504 152.104 19.165 143.678C18.8277 134.765 18.3607 125.856 17.764 116.951C16.6354 99.452 15.3771 82.0049 13.7166 64.4932C12.8581 54.6701 11.4898 44.898 9.61743 35.2163C9.20232 33.1713 6.07603 34.0385 6.49114 36.0705Z" fill="#151718"/>
<path d="M20.1898 171.428C28.3752 172.722 36.5218 171.428 44.4997 169.551C52.4776 167.674 60.5333 165.344 68.4723 163.002C84.3503 158.316 100.021 153.031 115.484 147.147C124.132 143.859 132.693 140.408 141.168 136.792C143.075 135.977 141.428 133.181 139.534 133.997C110.013 146.671 79.5816 157.119 48.4951 165.254C39.5832 167.584 30.334 169.874 21.0589 168.36C19.0093 168.024 18.1402 171.143 20.1898 171.479V171.428Z" fill="#151718"/>
<path d="M139.69 136.559C141.248 138.127 142.922 139.577 144.697 140.895C146.543 142.494 148.691 143.709 151.014 144.467C154.906 145.412 157.669 142.824 158.798 139.394C159.34 137.555 159.683 135.663 159.822 133.751C160.151 131.041 160.415 128.336 160.614 125.636C160.977 120.64 161.154 115.639 161.146 110.635C161.146 90.1201 158.305 69.748 155.049 49.5311C153.22 38.1025 151.157 26.6869 149.471 15.2324C149.159 13.1874 146.033 14.0546 146.344 16.0996C152.026 53.3364 160.614 90.8708 157.111 128.703C156.878 131.292 156.683 133.88 156.203 136.391C155.918 137.918 155.49 139.847 154.193 140.856C152.169 142.435 149.328 140.209 147.706 139.044C145.653 137.611 143.734 135.995 141.973 134.217C141.663 133.942 141.26 133.796 140.846 133.809C140.431 133.821 140.038 133.992 139.746 134.285C139.453 134.578 139.285 134.972 139.274 135.385C139.264 135.799 139.413 136.2 139.69 136.508V136.559Z" fill="#151718"/>
<path d="M147.564 13.4592C139.78 17.0573 131.543 18.0151 123.15 18.8435L97.3095 21.4321C95.2469 21.6391 95.221 24.8749 97.3095 24.6678L124.421 22.0015C133.009 21.1602 141.285 19.9695 149.198 16.3067C151.092 15.4136 149.445 12.6309 147.564 13.511V13.4592Z" fill="#151718"/>
<path d="M21.3184 171.803C40.3356 173.253 59.1972 169.59 77.7734 166.004C96.8944 162.329 116.119 159.417 135.448 157.087C142.492 156.246 152.662 156.116 155.619 148.182C155.683 147.942 155.69 147.69 155.641 147.446C155.592 147.203 155.488 146.974 155.336 146.776C155.185 146.579 154.99 146.419 154.767 146.308C154.544 146.197 154.299 146.139 154.05 146.137C127.095 149.204 100.356 153.929 73.9855 160.284C66.5394 162.087 59.1237 164.02 51.7382 166.082C51.3236 166.197 50.9718 166.472 50.7601 166.846C50.5485 167.219 50.4943 167.662 50.6096 168.075C50.7248 168.489 51 168.84 51.3747 169.051C51.7493 169.262 52.1927 169.316 52.6073 169.201C78.4951 161.98 104.805 156.36 131.387 152.376C138.929 151.237 146.483 150.24 154.05 149.386L152.493 147.341C151.378 150.331 148.199 151.664 145.32 152.414C141.429 153.227 137.491 153.789 133.528 154.097C124.447 155.197 115.445 156.401 106.416 157.76C88.2549 160.517 70.3014 164.71 52.1014 167.247C41.9164 168.777 31.5962 169.211 21.3184 168.541C19.2428 168.386 19.2428 171.622 21.3184 171.777V171.803Z" fill="#151718"/>
<path d="M80.3937 164.167C103.277 157.048 127.846 158.679 150.664 151.353C152.312 150.822 152.143 147.962 150.236 148.169C136.823 149.593 123.487 151.556 110.23 154.058C108.18 154.446 109.049 157.566 111.086 157.19C124.058 154.74 137.108 152.82 150.236 151.431L149.808 148.26C126.977 155.585 102.408 153.955 79.5376 161.073C77.5528 161.695 78.396 164.827 80.3937 164.192V164.167Z" fill="#151718"/>
<path d="M137.575 151.923C143.675 152.155 149.751 151.046 155.373 148.674C157.669 147.864 159.574 146.218 160.705 144.066C161.833 141.478 161.639 138.371 161.807 135.653C162.599 123.138 163.221 110.544 162.119 98.0153C161.539 91.0131 160.306 84.0801 158.434 77.3066C158.31 76.9051 158.035 76.5675 157.665 76.3652C157.296 76.1629 156.863 76.1119 156.457 76.2229C156.05 76.3339 155.703 76.5982 155.489 76.9599C155.275 77.3216 155.21 77.7523 155.308 78.1609C158.228 89.2331 159.629 100.649 159.472 112.097C159.472 117.831 159.265 123.552 158.953 129.272C158.798 132.133 158.616 134.993 158.434 137.841C158.266 140.429 158.434 143.16 155.944 144.791C153.288 146.346 150.368 147.399 147.33 147.897C144.126 148.578 140.849 148.861 137.575 148.739C135.487 148.661 135.5 151.897 137.575 151.974V151.923Z" fill="#151718"/>
<path d="M8.15158 36.4847C17.8029 38.8662 27.8434 36.2776 37.3909 34.5432L68.0701 29.0295C70.1197 28.6542 69.2506 25.535 67.214 25.9103L37.806 31.191C28.492 32.8736 18.4515 35.6822 9.03369 33.3654C7.01002 32.8736 6.14089 35.954 8.16455 36.4847H8.15158Z" fill="#151718"/>
<path d="M6.34844 34.9833C8.57966 57.1847 10.9536 79.3732 13.4702 101.549C13.7037 103.594 16.9467 103.62 16.7132 101.549C14.1966 79.4163 11.8227 57.2279 9.59149 34.9833C9.38393 32.9254 6.14089 32.8995 6.34844 34.9833Z" fill="#151718"/>
<path d="M158.707 77.9797L158.292 71.6376C158.282 71.2117 158.108 70.8059 157.806 70.5046C157.504 70.2033 157.097 70.0297 156.67 70.0198C156.241 70.0232 155.831 70.1947 155.527 70.4974C155.224 70.8001 155.052 71.2096 155.049 71.6376L155.464 77.9797C155.464 78.4088 155.635 78.8203 155.939 79.1237C156.243 79.4271 156.655 79.5975 157.085 79.5975C157.515 79.5975 157.928 79.4271 158.232 79.1237C158.536 78.8203 158.707 78.4088 158.707 77.9797Z" fill="#151718"/>
<path d="M8.16455 38.1025L1.48387 39.0344C1.28145 39.0886 1.09209 39.1831 0.927142 39.3121C0.76219 39.4411 0.625044 39.602 0.523926 39.7851C0.406517 39.977 0.330835 40.1914 0.301784 40.4144C0.272733 40.6374 0.290961 40.8639 0.355287 41.0794C0.467922 41.4856 0.732621 41.8331 1.0947 42.0501C1.49593 42.2499 1.95284 42.3091 2.39192 42.2184L9.12449 41.2736C9.5363 41.1586 9.88594 40.8861 10.0973 40.5152C10.3087 40.1443 10.3647 39.7051 10.2531 39.2933C10.1398 38.8837 9.86951 38.535 9.50068 38.3226C9.10274 38.1123 8.64206 38.0526 8.20346 38.1543L8.16455 38.1025Z" fill="#151718"/>
<path d="M0.575815 41.8948C3.70211 45.7777 4.98636 50.6442 5.76469 55.446C6.556 60.8821 6.80247 66.3958 7.33433 71.8577C8.52777 83.9377 10.1104 95.9401 12.0822 107.865C13.1545 114.664 14.3782 121.433 15.7533 128.172C16.1684 130.217 19.2947 129.35 18.8796 127.318C16.3803 115.005 14.2961 102.619 12.627 90.159C11.8227 84.1189 11.1179 78.0185 10.5125 71.8577C9.96768 66.2793 9.6823 60.6621 8.89099 55.0319C8.09969 49.4017 6.49114 44.0433 2.87189 39.6039C1.57467 37.986 -0.721405 40.2899 0.575815 41.8948Z" fill="#151718"/>
<path d="M10.4736 51.1361L9.17638 45.1953C8.81316 43.5515 7.96997 41.1959 5.80361 41.4548L7.42513 43.0726L7.3473 41.6877C7.34391 41.2597 7.17198 40.8501 6.86862 40.5475C6.56526 40.2448 6.15478 40.0732 5.72578 40.0699C5.29649 40.073 4.88511 40.2419 4.57795 40.5411C4.27078 40.8404 4.09171 41.2467 4.07831 41.6748L4.15614 43.0597C4.15614 43.8492 4.86961 44.7811 5.77766 44.6775C6.14089 44.6775 5.92036 44.6775 5.69983 44.6128C5.4793 44.5481 5.36255 44.3798 5.622 44.6128C5.3885 44.3928 5.622 44.6128 5.622 44.6905C5.622 44.7681 5.75172 45.0399 5.622 44.7811C5.8555 45.5059 5.98522 46.2566 6.15386 47.0073L7.24352 51.9903C7.3676 52.3918 7.64339 52.7295 8.01252 52.9317C8.38166 53.134 8.81519 53.185 9.22137 53.074C9.62756 52.9631 9.97453 52.6987 10.1889 52.337C10.4032 51.9754 10.4681 51.5446 10.3698 51.1361H10.4736Z" fill="#151718"/>
<path d="M142.881 138.32L124.071 146.642C118 149.334 111.968 152.22 105.715 154.408C99.6286 156.624 93.2879 158.072 86.8409 158.718C81.0683 159.261 75.0492 158.964 69.8473 161.902C69.6283 162.028 69.4413 162.203 69.301 162.413C69.1607 162.623 69.0707 162.862 69.0381 163.113C69.0055 163.363 69.0311 163.618 69.1129 163.856C69.1948 164.095 69.3307 164.312 69.5101 164.49C71.0797 165.784 72.805 165.784 74.6989 165.396C77.2934 164.969 79.8878 164.413 82.3525 163.778C82.5578 163.721 82.7498 163.625 82.9176 163.494C83.0855 163.363 83.2258 163.2 83.3306 163.015C83.4354 162.83 83.5026 162.626 83.5284 162.415C83.5543 162.204 83.5382 161.99 83.4811 161.785C83.424 161.58 83.3271 161.389 83.1958 161.221C83.0645 161.054 82.9015 160.914 82.716 160.809C82.5305 160.705 82.3262 160.638 82.1147 160.612C81.9032 160.586 81.6887 160.602 81.4834 160.659C79.7711 161.086 78.0328 161.487 76.2945 161.824C75.2827 162.031 72.6753 162.976 71.7672 162.199L71.4429 164.788C76.7485 161.798 83.3514 162.51 89.2019 161.772C95.5285 160.996 101.742 159.48 107.713 157.255C113.836 154.964 119.751 152.169 125.719 149.489L144.567 141.115C146.474 140.261 144.827 137.478 142.933 138.32H142.881Z" fill="#151718"/>
<path d="M87.9324 64.6694C80.7256 64.6153 72.3723 67.9165 68.5069 74.2592C67.5435 75.8516 67.0511 77.6803 67.0858 79.5367C67.1206 81.3931 67.6811 83.2025 68.7034 84.7583C70.7999 88.1353 74.2832 90.2243 77.6573 92.1509C78.0323 92.3691 78.4794 92.4306 78.9002 92.322C79.3211 92.2134 79.6811 91.9436 79.9012 91.5718C80.1213 91.2001 80.1834 90.7569 80.0739 90.3398C79.9643 89.9226 79.6921 89.5657 79.317 89.3475C76.5654 87.7781 73.5516 86.1004 71.7499 83.4594C70.8567 82.275 70.3741 80.836 70.3741 79.3572C70.3741 77.8785 70.8567 76.4394 71.7499 75.255C75.2878 70.3411 82.0359 67.8732 87.9324 67.9165C88.3668 67.9165 88.7834 67.7455 89.0906 67.441C89.3977 67.1365 89.5703 66.7236 89.5703 66.293C89.5703 65.8624 89.3977 65.4494 89.0906 65.1449C88.7834 64.8405 88.3668 64.6694 87.9324 64.6694Z" fill="#151718"/>
<path d="M77.5809 90.181C67.5723 99.2198 59.4158 110.087 53.5583 122.187C52.652 124.059 55.4692 125.705 56.3864 123.821C62.1095 111.952 70.0965 101.293 79.9067 92.4323C81.4681 91.0252 79.1423 88.7306 77.5809 90.1377V90.181Z" fill="#151718"/>
<path d="M53.591 123.832C54.535 125.4 55.8133 126.745 57.3364 127.772C57.7176 127.986 58.1682 128.044 58.5921 127.934C59.0026 127.816 59.3534 127.55 59.5748 127.187C59.6874 127 59.76 126.792 59.7881 126.576C59.8163 126.36 59.7995 126.141 59.7386 125.932C59.6101 125.533 59.3432 125.191 58.9852 124.969L58.4829 124.601L58.8323 124.86C58.1195 124.312 57.4809 123.676 56.9324 122.966L57.1835 123.302C56.911 122.956 56.6594 122.594 56.4301 122.219C56.2086 121.857 55.8578 121.59 55.4473 121.472C55.022 121.366 54.5713 121.428 54.1916 121.646C53.8218 121.848 53.5472 122.186 53.4272 122.587C53.3184 123.008 53.3771 123.453 53.591 123.832Z" fill="#151718"/>
<path d="M59.5421 127.718C62.5778 125.365 65.2041 122.535 67.3167 119.34C67.4343 119.156 67.5133 118.95 67.5489 118.735C67.5844 118.519 67.5758 118.299 67.5236 118.087C67.4715 117.875 67.3767 117.676 67.2451 117.501C67.1134 117.326 66.9476 117.179 66.7574 117.07C66.5673 116.96 66.3568 116.889 66.1384 116.862C65.9201 116.834 65.6984 116.851 65.4866 116.91C65.2749 116.969 65.0773 117.07 64.9059 117.207C64.7344 117.344 64.5924 117.513 64.4885 117.706C64.2265 118.095 63.9644 118.474 63.6914 118.853C63.5604 119.026 63.4403 119.199 63.3093 119.362L63.1018 119.643C62.5231 120.358 61.9443 121.05 61.311 121.721C60.0618 123.053 58.7071 124.284 57.2599 125.401C56.9559 125.707 56.7854 126.119 56.7854 126.549C56.7854 126.978 56.9559 127.39 57.2599 127.696C57.5766 127.986 57.9918 128.147 58.4228 128.147C58.8539 128.147 59.2691 127.986 59.5858 127.696L59.5421 127.718Z" fill="#151718"/>
<path d="M64.5977 120.065L67.6333 121.505C68.5963 122.058 69.618 122.505 70.6798 122.836C71.1465 122.958 71.6354 122.968 72.107 122.867C72.5786 122.766 73.0195 122.557 73.3939 122.255C73.7683 121.953 74.0658 121.569 74.262 121.132C74.4583 120.695 74.5478 120.218 74.5234 119.741C74.4857 118.885 74.1931 118.061 73.6826 117.37C73.4097 116.959 72.2085 115.866 72.3505 115.325C72.3505 115.411 72.3505 115.325 72.5689 115.249C72.7919 115.232 73.0157 115.266 73.224 115.346C74.098 115.789 74.9374 116.295 75.7355 116.862C76.501 117.344 77.3992 117.578 78.3052 117.532C79.2111 117.485 80.08 117.16 80.7912 116.602C82.2107 115.314 82.0032 113.203 81.2061 111.644C80.6653 110.931 80.2245 110.148 79.8958 109.317C79.8359 109.142 79.8359 108.952 79.8958 108.776C79.8958 108.776 79.7101 108.776 79.8958 108.863C81.1842 109.285 82.2107 110.27 83.652 110.194C85.8905 110.086 86.764 107.889 86.4255 105.973C85.9381 103.824 84.8435 101.856 83.2698 100.301C81.8285 98.7642 79.5136 101.07 80.9549 102.596C82.0679 103.691 82.8539 105.069 83.2262 106.579C83.3026 107.001 83.1497 106.979 83.4882 106.958C83.1606 106.958 82.5382 106.514 82.1888 106.33C81.6242 105.945 80.97 105.709 80.2878 105.645C79.6057 105.581 78.9183 105.69 78.2906 105.962C77.6197 106.387 77.1032 107.012 76.8164 107.748C76.5296 108.484 76.4876 109.292 76.6964 110.053C76.9066 110.802 77.2386 111.511 77.6791 112.153C77.9958 112.64 78.6728 113.409 78.5745 114.047C78.5745 114.307 78.4107 114.35 77.974 114.275C77.2858 114.071 76.6494 113.724 76.1067 113.257C75.4788 112.756 74.7468 112.4 73.9634 112.213C73.1799 112.025 72.3643 112.013 71.5752 112.175C70.7989 112.369 70.1214 112.839 69.6707 113.495C69.22 114.152 69.0274 114.949 69.1293 115.736C69.2777 116.665 69.6777 117.536 70.2867 118.258C70.556 118.577 70.804 118.913 71.0292 119.264C70.9746 119.167 71.2804 119.849 71.2585 119.838C71.2367 119.827 71.5752 119.838 71.4879 119.687C71.2968 119.603 71.0997 119.535 70.8982 119.481C70.4068 119.275 69.9373 119.015 69.4678 118.788L66.192 117.251C64.3029 116.342 62.6432 119.135 64.5431 120.055L64.5977 120.065Z" fill="#151718"/>
<path d="M83.2152 102.812L88.533 96.8809C88.6939 96.7323 88.823 96.553 88.9125 96.3539C89.002 96.1547 89.0501 95.9397 89.054 95.7217C89.0579 95.5037 89.0174 95.2872 88.9351 95.085C88.8527 94.8829 88.7301 94.6992 88.5745 94.545C88.419 94.3909 88.2337 94.2693 88.0298 94.1877C87.8259 94.106 87.6074 94.0659 87.3875 94.0698C87.1676 94.0736 86.9507 94.1213 86.7498 94.2101C86.5488 94.2988 86.368 94.4267 86.2181 94.5863L80.9003 100.518C80.7394 100.666 80.6103 100.846 80.5208 101.045C80.4313 101.244 80.3832 101.459 80.3793 101.677C80.3754 101.895 80.4159 102.111 80.4982 102.314C80.5806 102.516 80.7032 102.699 80.8588 102.854C81.0143 103.008 81.1996 103.129 81.4035 103.211C81.6075 103.293 81.8259 103.333 82.0458 103.329C82.2657 103.325 82.4826 103.277 82.6836 103.188C82.8845 103.1 83.0653 102.972 83.2152 102.812Z" fill="#151718"/>
<path d="M86.7094 96.2206C88.5778 97.6159 90.7318 98.5886 93.0201 99.0704C95.3083 99.5522 97.6752 99.5314 99.9545 99.0094C102.234 98.4874 104.37 97.4769 106.213 96.0489C108.056 94.6209 109.561 92.8101 110.623 90.7438C115.078 81.7601 111.223 71.2611 102.684 66.3038C100.076 64.8277 97.1969 63.8834 94.2153 63.5265C91.2337 63.1696 88.2102 63.4073 85.3227 64.2256C84.9365 64.3685 84.6183 64.6496 84.4307 65.0134C84.2432 65.3773 84.2 65.7976 84.3096 66.1915C84.4193 66.5854 84.6738 66.9243 85.023 67.1414C85.3722 67.3586 85.7908 67.4382 86.1962 67.3645C94.3967 65.1348 103.722 68.2629 107.707 76.0235C111.212 82.8425 108.614 92.4864 101.09 95.3547C99.1216 96.1492 96.9817 96.4349 94.8711 96.185C92.7606 95.9351 90.7488 95.1578 89.0243 93.926C87.3864 92.6488 85.0497 94.9326 86.7094 96.2206Z" fill="#151718"/>
<path d="M97.7271 75.1468C98.142 69.2154 98.8845 60.8919 105.371 58.2185C106.584 57.6525 107.944 57.4694 109.266 57.694C110.588 57.9185 111.809 58.5398 112.763 59.474C113.626 60.4096 114.265 61.5263 114.631 62.7408C114.998 63.9552 115.084 65.2361 114.881 66.4878C114.357 69.9081 112.152 72.7872 109.596 75.0277C108.024 76.4132 110.339 78.7078 111.911 77.3224C114.849 74.9027 116.949 71.6327 117.917 67.9706C118.319 66.2835 118.347 64.5299 117.998 62.8312C117.649 61.1324 116.932 59.529 115.897 58.1319C114.798 56.6971 113.31 55.6016 111.607 54.973C109.903 54.3445 108.055 54.2087 106.277 54.5817C104.431 55.0024 102.701 55.8169 101.205 56.9684C99.7098 58.1199 98.4856 59.5807 97.6179 61.2491C95.2375 65.492 94.8116 70.3952 94.4513 75.1468C94.2984 77.2358 97.5742 77.225 97.7271 75.1468Z" fill="#151718"/>
<path d="M94.484 70.2436C92.0162 69.3561 89.1008 68.6634 86.8405 70.3844C84.5802 72.1053 84.602 75.2334 86.0324 77.5605C88.5439 81.6735 94.3967 84.2171 99.0265 82.1931C101.636 81.0349 103.296 77.712 101.593 75.136C101.366 74.7729 101.007 74.5099 100.591 74.4012C100.174 74.2924 99.7317 74.3462 99.354 74.5515C98.9814 74.7704 98.7107 75.1259 98.6004 75.5411C98.49 75.9563 98.549 76.3979 98.7644 76.7704C98.7644 76.7704 98.9828 77.1708 98.9173 77.0193C98.9173 77.0842 99.0155 77.4739 98.9937 77.2791C99.0198 77.5385 98.9901 77.8004 98.9063 78.0476C98.7754 78.3375 98.5857 78.5976 98.349 78.8117C98.1123 79.0258 97.8337 79.1894 97.5305 79.2923C96.0538 79.7884 94.4471 79.7462 92.999 79.1732C91.5309 78.6647 90.2368 77.757 89.2646 76.5539C88.8303 76.0035 88.5077 75.375 88.3146 74.703C88.2182 74.3986 88.1957 74.076 88.2491 73.7614C88.2881 73.5423 88.3905 73.3393 88.5439 73.1769C88.7486 72.9945 88.9807 72.8448 89.2318 72.7331C89.5776 72.5927 89.9505 72.5298 90.3237 72.5491C91.4824 72.6261 92.6178 72.9084 93.676 73.3825C94.0958 73.4927 94.5424 73.4354 94.92 73.2229C95.2976 73.0105 95.5763 72.6598 95.6961 72.246C95.8015 71.8302 95.7411 71.39 95.5276 71.0171C95.3141 70.6442 94.9638 70.3672 94.5495 70.2436H94.484Z" fill="#151718"/>
</svg>
